<svg width="9945" height="9959" viewBox="0 0 9945 9959" fill="none" xmlns="http://www.w3.org/2000/svg">
<mask id="mask0_7_26" style="mask-type:luminance" maskUnits="userSpaceOnUse" x="-55" y="0" width="10000" height="10000">
<path d="M9545 0H345C124.086 0 -55 179.086 -55 400V9600C-55 9820.91 124.086 10000 345 10000H9545C9765.91 10000 9945 9820.91 9945 9600V400C9945 179.086 9765.91 0 9545 0Z" fill="white"/>
</mask>
<g mask="url(#mask0_7_26)">
<path d="M4376.26 7420L3660.76 8729.5L4152.74 9232.99L5141.53 8244.2L4376.26 7420Z" stroke="#006FFF" stroke-opacity="0.24" stroke-width="240" stroke-miterlimit="1.5" stroke-linecap="round" stroke-linejoin="round"/>
<path d="M6620.5 6699.5L5715 7811.5L7056.17 9300.4L7873.66 8482.91L6889.5 7605L6620.5 6699.5Z" stroke="#006FFF" stroke-opacity="0.24" stroke-width="240" stroke-miterlimit="1.5" stroke-linecap="round" stroke-linejoin="round"/>
<path fill-rule="evenodd" clip-rule="evenodd" d="M7720.75 -448.222L8946.59 -1674.12L11363.6 742.809L10966.2 1140.14L9572.94 -253.195L8754.72 564.974L7720.75 -448.222Z" stroke="#006FFF" stroke-opacity="0.24" stroke-width="240" stroke-miterlimit="1.5" stroke-linecap="round" stroke-linejoin="round"/>
<path fill-rule="evenodd" clip-rule="evenodd" d="M-2279.25 -448.222L-1053.41 -1674.12L1363.6 742.809L966.24 1140.14L-427.058 -253.195L-1245.28 564.974L-2279.25 -448.222Z" stroke="#006FFF" stroke-opacity="0.24" stroke-width="240" stroke-miterlimit="1.5" stroke-linecap="round" stroke-linejoin="round"/>
<path fill-rule="evenodd" clip-rule="evenodd" d="M7720.75 9551.78L8946.59 8325.88L11363.6 10742.8L10966.2 11140.1L9572.94 9746.81L8754.72 10565L7720.75 9551.78Z" stroke="#006FFF" stroke-opacity="0.24" stroke-width="240" stroke-miterlimit="1.5" stroke-linecap="round" stroke-linejoin="round"/>
<path fill-rule="evenodd" clip-rule="evenodd" d="M-2279.25 9551.78L-1053.41 8325.88L1363.6 10742.8L966.24 11140.1L-427.058 9746.81L-1245.28 10565L-2279.25 9551.78Z" stroke="#006FFF" stroke-opacity="0.24" stroke-width="240" stroke-miterlimit="1.5" stroke-linecap="round" stroke-linejoin="round"/>
<path fill-rule="evenodd" clip-rule="evenodd" d="M3619 5540L5019 4071.5L5865 4683.5L4633.33 5644.4L5134.52 6145.59L5599.57 5680.55L6116.93 6197.91L5167.62 7147.22L3619 5540Z" stroke="#006FFF" stroke-opacity="0.24" stroke-width="240" stroke-miterlimit="1.5" stroke-linecap="round" stroke-linejoin="round"/>
<path fill-rule="evenodd" clip-rule="evenodd" d="M6119.5 4174L6699.5 3495L7641.5 4460L8054.5 4307L8710 4944.5L7299 6446L6361.5 5399.5L6846.31 4871.19L6119.5 4174Z" stroke="#006FFF" stroke-opacity="0.24" stroke-width="240" stroke-miterlimit="1.5" stroke-linecap="round" stroke-linejoin="round"/>
<path fill-rule="evenodd" clip-rule="evenodd" d="M3133.62 1193.39L3604.48 793.929L5655.49 2444.74L6520.5 1607L6989 2102.5L5655.49 3669L3133.62 1193.39Z" stroke="#006FFF" stroke-opacity="0.24" stroke-width="240" stroke-miterlimit="1.5" stroke-linecap="round" stroke-linejoin="round"/>
<path fill-rule="evenodd" clip-rule="evenodd" d="M1623.23 1785.56L2137.39 1271.39L2679.81 1813.81L2138.92 2298.76L1623.23 1785.56Z" stroke="#006FFF" stroke-opacity="0.24" stroke-width="240" stroke-miterlimit="1.5" stroke-linecap="round" stroke-linejoin="round"/>
<path fill-rule="evenodd" clip-rule="evenodd" d="M2263.4 3244.54L3245.5 2298.76L3872 2952L2271.72 4232.77L1779.26 3715.97L2263.4 3244.54Z" stroke="#006FFF" stroke-opacity="0.24" stroke-width="240" stroke-miterlimit="1.5" stroke-linecap="round" stroke-linejoin="round"/>
<path fill-rule="evenodd" clip-rule="evenodd" d="M2639 4650.5L4325.5 3382.5L4639.99 3692.28L3136.51 5195.75L2639 4650.5Z" stroke="#006FFF" stroke-opacity="0.24" stroke-width="240" stroke-miterlimit="1.5" stroke-linecap="round" stroke-linejoin="round"/>
<path fill-rule="evenodd" clip-rule="evenodd" d="M484.42 4413.88L1051.3 3847L3932.26 6909.5L3490.5 7617.5L484.42 4413.88Z" stroke="#006FFF" stroke-opacity="0.24" stroke-width="240" stroke-miterlimit="1.5" stroke-linecap="round" stroke-linejoin="round"/>
<path fill-rule="evenodd" clip-rule="evenodd" d="M5132.34 1164.04L6113.8 182.599L5599.28 -331.942L4595.28 672.061L4093.94 170.721L5554.38 -1289.74L8033.27 1189.14L7574.56 1647.85L6529.5 544L5547.5 1544L5132.34 1164.04Z" stroke="#006FFF" stroke-opacity="0.24" stroke-width="240" stroke-miterlimit="1.5" stroke-linecap="round" stroke-linejoin="round"/>
<path fill-rule="evenodd" clip-rule="evenodd" d="M5132.34 11164L6113.8 10182.6L5599.28 9668.06L4595.28 10672.1L4093.94 10170.7L5554.38 8710.26L8033.27 11189.1L7574.56 11647.8L6616.24 10689.5L5626.9 11678.9L5132.34 11164Z" stroke="#006FFF" stroke-opacity="0.24" stroke-width="240" stroke-miterlimit="1.5" stroke-linecap="round" stroke-linejoin="round"/>
<path fill-rule="evenodd" clip-rule="evenodd" d="M7068 2968.7L9616.39 684.666L11900.4 2968.7L11366 3503.08L9628.13 1765.16L8638.36 2754.82L9095.77 3212.23L9659.09 2649.06L10381.3 3371.34L9359.43 4393.15L8202.5 3371.34L7716 3503.08L7068 2968.7Z" stroke="#006FFF" stroke-opacity="0.24" stroke-width="240" stroke-miterlimit="1.5" stroke-linecap="round" stroke-linejoin="round"/>
<path fill-rule="evenodd" clip-rule="evenodd" d="M-2868.87 3169.96L-383.617 684.666L1900.44 2968.7L1366.02 3503.08L-371.869 1765.16L-1361.65 2754.82L-904.238 3212.23L-340.917 2649.06L381.278 3371.34L-640.571 4393.15L-1876.3 3157.43L-2364.85 3702.47L-2868.87 3169.96Z" stroke="#006FFF" stroke-opacity="0.24" stroke-width="240" stroke-miterlimit="1.5" stroke-linecap="round" stroke-linejoin="round"/>
<path fill-rule="evenodd" clip-rule="evenodd" d="M2151.53 10250.2L2650.41 10749.1L3747.42 9652.11L3238.77 9143.46L2746.5 9593.5L1088 8204.5L258.5 8640L2151.53 10250.2Z" stroke="#006FFF" stroke-opacity="0.24" stroke-width="240" stroke-miterlimit="1.5" stroke-linecap="round" stroke-linejoin="round"/>
<path fill-rule="evenodd" clip-rule="evenodd" d="M2151.53 250.246L2650.41 749.125L3747.42 -347.889L3238.77 -856.538L2746.5 -406.5L1088 -1795.5L258.5 -1360L2151.53 250.246Z" stroke="#006FFF" stroke-opacity="0.24" stroke-width="240" stroke-miterlimit="1.5" stroke-linecap="round" stroke-linejoin="round"/>
<path fill-rule="evenodd" clip-rule="evenodd" d="M1616.5 7592.5L2791 8496L3026.5 8059L-92.8677 4834.38L-2646.89 7388.38L-2135.44 7899.83L-54.9958 5876.05L518.973 6450.02L-767.008 7661.39L-229.586 8198.81L996.69 7047.14L1616.5 7592.5Z" stroke="#006FFF" stroke-opacity="0.24" stroke-width="240" stroke-miterlimit="1.5" stroke-linecap="round" stroke-linejoin="round"/>
<path fill-rule="evenodd" clip-rule="evenodd" d="M11623.2 7663.85L12839.2 8879.85L13395.9 8323.15L9907.13 4834.38L7555.5 7217.5L8066.95 7728.95L9945 5876.05L10519 6450.02L9232.99 7661.39L9770.42 8198.81L10996.7 7047.14L11623.2 7663.85Z" stroke="#006FFF" stroke-opacity="0.24" stroke-width="240" stroke-miterlimit="1.5" stroke-linecap="round" stroke-linejoin="round"/>
</g>
</svg>
