<svg width="130" height="157" viewBox="0 0 130 157" fill="none" xmlns="http://www.w3.org/2000/svg">
<g opacity="0.15">
<path d="M113.131 82.3293V39.25C106.984 33.2687 103.537 29.9142 97.3908 23.9329H85.5858C85.5858 13.3603 76.7754 4.78658 65.9109 4.78658H63.9434C53.0789 4.78658 44.2685 13.3603 44.2685 23.9329H32.4636C26.3171 29.9142 22.8701 33.2687 16.7236 39.25V82.3293L4.9187 94.7744V140.726C9.5305 145.213 12.1118 147.725 16.7236 152.213H113.174C117.782 147.748 120.371 145.236 124.979 140.772L125.168 94.5484L113.131 82.3293ZM54.106 23.9329C54.106 18.6447 58.5092 14.3597 63.9434 14.3597H65.9109C71.3451 14.3597 75.7484 18.6447 75.7484 23.9329H54.106Z" fill="#1E119D"/>
<path d="M63.9431 5.28658H65.9109C76.5122 5.28658 85.0857 13.6493 85.0857 23.9331V24.4331H97.1873C97.1985 24.444 97.2102 24.4544 97.2214 24.4653C97.2333 24.4768 97.2448 24.489 97.2566 24.5004C97.2812 24.5244 97.3034 24.5459 97.3279 24.5698C97.4016 24.6415 97.3963 24.6362 97.4695 24.7075C97.5031 24.7402 97.5072 24.7432 97.5408 24.7758C97.5525 24.7872 97.5643 24.7987 97.5759 24.81C97.5875 24.8213 97.5986 24.833 97.6101 24.8442L97.7507 24.9809C97.7621 24.992 97.7735 25.003 97.7849 25.0141C97.7965 25.0254 97.8085 25.037 97.8201 25.0483L97.9587 25.1831L98.0271 25.2495C98.0386 25.2606 98.0498 25.2725 98.0613 25.2836L98.3347 25.5493C98.3458 25.56 98.3569 25.5708 98.3679 25.5815L98.4363 25.6479C98.4649 25.6757 98.474 25.6855 98.5027 25.7133C98.5139 25.7242 98.5257 25.7347 98.5369 25.7456C98.5481 25.7565 98.5589 25.7679 98.5701 25.7788C98.5781 25.7866 98.6292 25.8352 98.6375 25.8432C98.6486 25.8541 98.6595 25.8656 98.6707 25.8764L98.9695 26.1665C98.9804 26.1771 98.9908 26.1881 99.0017 26.1987C99.0127 26.2094 99.024 26.2203 99.0349 26.2309C99.0458 26.2415 99.0573 26.2516 99.0681 26.2622C99.079 26.2728 99.0895 26.2838 99.1003 26.2944C99.1112 26.305 99.1227 26.315 99.1335 26.3256L99.198 26.3901C99.2089 26.4007 99.2203 26.4108 99.2312 26.4213C99.2419 26.4318 99.2527 26.4422 99.2634 26.4526C99.2742 26.4631 99.2849 26.4743 99.2957 26.4848C99.3065 26.4953 99.3181 26.5056 99.3289 26.5161C99.3396 26.5265 99.3504 26.5369 99.3611 26.5473C99.3804 26.5662 99.4062 26.592 99.4255 26.6108L99.5867 26.767C99.5972 26.7773 99.6074 26.788 99.6179 26.7983C99.6594 26.8386 99.7046 26.8822 99.7458 26.9223C99.7565 26.9326 99.7675 26.9433 99.7781 26.9536C99.7886 26.9638 99.7988 26.9746 99.8093 26.9848C99.8199 26.9951 99.831 27.0048 99.8416 27.0151C99.8521 27.0253 99.8623 27.0361 99.8728 27.0463C99.8833 27.0566 99.8945 27.0664 99.905 27.0766C99.9156 27.0869 99.9258 27.0976 99.9363 27.1079C99.9467 27.118 99.9572 27.128 99.9675 27.1381C99.978 27.1484 99.9893 27.1592 99.9998 27.1694C100.01 27.1795 100.021 27.1896 100.031 27.1997C100.041 27.2099 100.052 27.2207 100.062 27.2309L100.125 27.2915C100.135 27.3016 100.147 27.3116 100.157 27.3217C100.167 27.3319 100.178 27.3429 100.188 27.353C100.205 27.3689 100.235 27.3979 100.251 27.4135C100.297 27.4583 100.266 27.4292 100.312 27.4741L100.437 27.5952C100.447 27.605 100.457 27.6147 100.468 27.6245L100.53 27.685C100.54 27.6949 100.55 27.7054 100.56 27.7153C100.571 27.7253 100.581 27.7346 100.592 27.7446C100.602 27.7545 100.612 27.7649 100.622 27.7749L100.745 27.894C100.8 27.9473 100.812 27.96 100.867 28.0131C100.877 28.0229 100.887 28.0326 100.897 28.0424C100.907 28.0523 100.917 28.0628 100.927 28.0727C100.94 28.0846 100.975 28.119 100.988 28.1313C100.998 28.1411 101.008 28.1517 101.018 28.1616L101.23 28.3667C101.29 28.4251 101.29 28.4255 101.35 28.4838C101.36 28.4935 101.371 28.5035 101.381 28.5131C101.39 28.5226 101.4 28.532 101.41 28.5415C101.42 28.5517 101.459 28.5895 101.469 28.6001C101.479 28.6097 101.49 28.6197 101.5 28.6294C101.509 28.6388 101.519 28.6482 101.529 28.6577C101.539 28.6673 101.549 28.6773 101.559 28.687C101.569 28.6966 101.579 28.7066 101.589 28.7163C101.599 28.7259 101.609 28.735 101.619 28.7446C101.629 28.7542 101.638 28.7643 101.648 28.7739C101.658 28.7835 101.669 28.7926 101.678 28.8022L101.737 28.8608C101.747 28.8704 101.758 28.8796 101.767 28.8891C101.802 28.9231 101.791 28.9125 101.826 28.9467C101.836 28.9562 101.845 28.9656 101.855 28.9751C101.865 28.9846 101.875 28.9948 101.885 29.0044C101.894 29.0139 101.905 29.0231 101.915 29.0327C101.925 29.0421 101.934 29.0515 101.944 29.061C102.009 29.1243 101.996 29.1121 102.061 29.1752C102.096 29.2094 102.085 29.1988 102.12 29.2329L102.237 29.3461C102.247 29.3555 102.256 29.3652 102.265 29.3745L102.383 29.4877C102.392 29.4971 102.401 29.5068 102.411 29.5161L102.499 29.601C102.508 29.6103 102.518 29.62 102.527 29.6294C102.537 29.6387 102.547 29.6483 102.556 29.6577C102.566 29.6668 102.575 29.6759 102.585 29.685L102.643 29.7417C102.653 29.751 102.662 29.7607 102.672 29.77C102.681 29.7793 102.691 29.7889 102.701 29.7983C102.71 29.8075 102.72 29.8165 102.729 29.8256C102.739 29.835 102.749 29.8446 102.759 29.854C102.768 29.8633 102.777 29.873 102.787 29.8823C102.796 29.8916 102.807 29.9003 102.816 29.9096C102.826 29.9189 102.835 29.9286 102.844 29.9379C102.854 29.9473 102.864 29.9569 102.874 29.9663C102.883 29.9754 102.893 29.9845 102.902 29.9936C102.912 30.0029 102.921 30.0127 102.93 30.0219C102.94 30.0312 102.95 30.04 102.96 30.0493C102.969 30.0585 102.979 30.0683 102.988 30.0776C103.052 30.14 103.038 30.1268 103.102 30.1889C103.112 30.1982 103.122 30.208 103.132 30.2172C103.141 30.2264 103.151 30.2354 103.16 30.2446C103.169 30.2539 103.179 30.2636 103.188 30.2729C103.198 30.2821 103.207 30.2911 103.217 30.3002C103.254 30.3363 103.237 30.3199 103.274 30.3559C103.298 30.3788 103.307 30.3886 103.331 30.4116C103.34 30.4207 103.35 30.4298 103.359 30.4389C103.369 30.4482 103.379 30.457 103.388 30.4663C103.398 30.4755 103.407 30.4854 103.417 30.4946C103.426 30.5037 103.436 30.5128 103.445 30.5219C103.495 30.5707 103.508 30.5837 103.558 30.6323C103.568 30.6415 103.577 30.6514 103.587 30.6606L103.672 30.7426C103.706 30.7763 103.694 30.7648 103.728 30.7983L103.785 30.853C103.875 30.9408 103.921 30.9861 104.011 31.0737L104.096 31.1557C104.106 31.1647 104.115 31.1741 104.124 31.1831L104.237 31.2924C104.247 31.3018 104.284 31.3388 104.294 31.3481C104.303 31.3571 104.312 31.3665 104.321 31.3754L104.463 31.5122C104.472 31.5212 104.481 31.5305 104.49 31.5395L104.575 31.6215L105.136 32.1684L105.25 32.2778C105.274 32.3018 105.337 32.3631 105.362 32.3872C105.371 32.3963 105.381 32.4054 105.39 32.4145L105.446 32.4702L105.559 32.5795C105.569 32.5885 105.577 32.5979 105.587 32.6069L105.757 32.771L105.812 32.8266L105.954 32.9633C105.963 32.9725 105.973 32.9825 105.982 32.9917L106.095 33.101C106.135 33.1391 106.113 33.1186 106.152 33.1567L106.209 33.2114C106.218 33.2206 106.228 33.2305 106.237 33.2397C106.246 33.2489 106.256 33.2579 106.265 33.267C106.318 33.3182 106.327 33.3262 106.38 33.3774C106.389 33.3865 106.399 33.3956 106.408 33.4047C106.417 33.414 106.427 33.4238 106.436 33.4331C106.446 33.4422 106.455 33.4513 106.465 33.4604C106.474 33.4696 106.483 33.4795 106.493 33.4887C106.512 33.5077 106.588 33.5802 106.607 33.5991L106.836 33.8217C106.845 33.831 106.855 33.8408 106.865 33.8501C106.874 33.8592 106.884 33.8682 106.893 33.8774C106.903 33.8867 106.912 33.8965 106.922 33.9057C106.931 33.915 106.941 33.9247 106.951 33.934C106.956 33.9391 107.006 33.9869 107.009 33.9897C107.018 33.999 107.027 34.0088 107.037 34.018C107.046 34.0273 107.057 34.0361 107.066 34.0454C107.076 34.0547 107.085 34.0644 107.094 34.0737C107.104 34.083 107.114 34.0927 107.124 34.102C107.133 34.1112 107.143 34.1202 107.152 34.1294C107.162 34.1387 107.172 34.1483 107.181 34.1577C107.191 34.167 107.2 34.1767 107.21 34.186L107.268 34.2426C107.278 34.2518 107.287 34.2608 107.297 34.27C107.339 34.3115 107.312 34.2855 107.354 34.3266L107.413 34.3833C107.455 34.4244 107.428 34.3989 107.47 34.4399L107.646 34.6098C107.746 34.7072 107.78 34.7405 107.881 34.8383C107.941 34.8971 108.055 35.0084 108.116 35.0678C108.126 35.0774 108.136 35.0875 108.146 35.0971C108.156 35.1066 108.166 35.116 108.176 35.1254C108.185 35.1351 108.196 35.1451 108.206 35.1547C108.216 35.1643 108.225 35.1745 108.235 35.184C108.245 35.1935 108.255 35.2029 108.264 35.2124C108.274 35.222 108.285 35.232 108.295 35.2417C108.305 35.2513 108.314 35.2613 108.324 35.271C108.334 35.2806 108.344 35.2896 108.354 35.2993C108.364 35.309 108.375 35.3189 108.385 35.3286C108.394 35.3382 108.404 35.3482 108.414 35.3579C108.424 35.3676 108.434 35.3775 108.444 35.3872C108.454 35.3966 108.464 35.406 108.473 35.4155L108.564 35.5034C108.574 35.513 108.584 35.523 108.594 35.5327L108.745 35.6792C108.755 35.689 108.765 35.6996 108.775 35.7094L108.896 35.8266C108.906 35.8365 108.916 35.847 108.927 35.8569C108.937 35.8667 108.947 35.8764 108.957 35.8862C108.967 35.8961 108.978 35.9066 108.988 35.9165L109.049 35.9751C109.059 35.985 109.07 35.9954 109.08 36.0053C109.11 36.0344 109.172 36.0953 109.202 36.1245C109.216 36.1386 109.249 36.1696 109.263 36.184C109.274 36.194 109.284 36.2043 109.295 36.2143C109.305 36.2242 109.315 36.2346 109.325 36.2446L109.419 36.3354C109.429 36.3452 109.439 36.3549 109.449 36.3647L109.574 36.4858C109.589 36.5005 109.621 36.5326 109.636 36.5473L109.73 36.6381C109.741 36.6483 109.751 36.6592 109.761 36.6694C109.8 36.7065 109.787 36.6927 109.825 36.7299C109.835 36.7402 109.846 36.751 109.856 36.7612C109.867 36.7713 109.877 36.7813 109.887 36.7915C109.898 36.8017 109.909 36.8124 109.92 36.8227C109.93 36.8328 109.941 36.8429 109.951 36.853C110.014 36.9147 110.014 36.915 110.078 36.977C110.088 36.9873 110.099 36.9979 110.11 37.0083C110.12 37.0184 110.131 37.0284 110.141 37.0385L110.27 37.1635C110.281 37.1738 110.291 37.1845 110.302 37.1948L110.398 37.2885C110.409 37.299 110.42 37.3103 110.43 37.3208C110.441 37.3312 110.453 37.3415 110.464 37.352L110.528 37.4145C110.539 37.425 110.549 37.4362 110.56 37.4467C110.571 37.4573 110.583 37.4674 110.594 37.478C110.604 37.4885 110.615 37.4997 110.626 37.5102C110.636 37.5206 110.647 37.531 110.658 37.5415C110.669 37.5521 110.68 37.5631 110.691 37.5737C110.702 37.5841 110.713 37.5945 110.723 37.6049C110.734 37.6156 110.746 37.6265 110.757 37.6372C110.767 37.6477 110.778 37.6588 110.789 37.6694C110.8 37.68 110.811 37.6901 110.822 37.7006C110.833 37.7113 110.844 37.7222 110.855 37.7329C110.958 37.8333 111.016 37.8893 111.12 37.9907C111.212 38.0799 111.296 38.1621 111.388 38.2524C111.488 38.3489 111.56 38.4185 111.66 38.5161L111.728 38.5825C111.74 38.5936 111.751 38.6055 111.762 38.6167C111.774 38.6277 111.785 38.6388 111.797 38.6499C111.808 38.661 111.82 38.6719 111.832 38.6831C111.843 38.6941 111.855 38.7052 111.866 38.7163C111.877 38.7274 111.889 38.7392 111.9 38.7504C111.912 38.7617 111.924 38.7724 111.935 38.7836C111.947 38.7949 111.958 38.8066 111.969 38.8178C111.981 38.8291 111.993 38.8398 112.005 38.851C112.016 38.8623 112.027 38.874 112.039 38.8852C112.05 38.8965 112.062 38.9081 112.074 38.9194C112.085 38.9305 112.097 38.9415 112.108 38.9526L112.214 39.0551C112.289 39.1281 112.42 39.2553 112.496 39.3295C112.508 39.341 112.519 39.3532 112.531 39.3647C112.543 39.3762 112.555 39.3873 112.567 39.3989C112.579 39.4104 112.59 39.4225 112.602 39.434C112.611 39.443 112.621 39.4514 112.631 39.4604V82.5346L112.774 82.6801L124.667 94.7514L124.479 140.558C122.247 142.721 120.488 144.427 118.728 146.133C116.967 147.841 115.206 149.548 112.971 151.713H16.9275C16.9221 151.708 16.9162 151.703 16.9109 151.698C16.901 151.688 16.8666 151.655 16.8572 151.646C16.8476 151.637 16.7593 151.55 16.7517 151.542L16.699 151.492C16.6902 151.483 16.6814 151.474 16.6726 151.465L16.5144 151.313C16.5058 151.305 16.4976 151.296 16.489 151.288C16.4804 151.279 16.4713 151.271 16.4626 151.262C16.4541 151.254 16.4458 151.245 16.4373 151.237L16.3845 151.186C16.376 151.178 16.3676 151.169 16.3591 151.161C16.3507 151.152 16.3421 151.144 16.3337 151.136C16.3023 151.106 16.3133 151.116 16.282 151.085C16.2734 151.077 16.2642 151.069 16.2556 151.061C16.2471 151.053 16.2387 151.044 16.2302 151.036C16.2218 151.027 16.2132 151.019 16.2048 151.011C16.1963 151.003 16.188 150.994 16.1794 150.986C16.171 150.978 16.1625 150.97 16.1541 150.961C16.1456 150.953 16.1371 150.944 16.1287 150.936C16.0902 150.899 16.1159 150.924 16.0779 150.887C16.0694 150.879 16.0609 150.87 16.0525 150.862L15.9255 150.74C15.8911 150.706 15.9098 150.724 15.8757 150.691C15.8674 150.683 15.8586 150.675 15.8503 150.666C15.8421 150.658 15.8341 150.65 15.8259 150.642C15.8 150.617 15.751 150.569 15.7253 150.544C15.7173 150.537 15.709 150.529 15.7009 150.521C15.6927 150.513 15.6847 150.504 15.6765 150.497C15.6683 150.489 15.6594 150.48 15.6511 150.472C15.643 150.464 15.6348 150.457 15.6267 150.449C15.6185 150.441 15.6104 150.432 15.6023 150.424C15.5941 150.416 15.5851 150.408 15.5769 150.4C15.5688 150.392 15.5606 150.384 15.5525 150.376C15.5443 150.368 15.5363 150.36 15.5281 150.352C15.52 150.344 15.5117 150.336 15.5037 150.329C15.4955 150.321 15.4874 150.312 15.4792 150.304L15.4304 150.257C15.4223 150.249 15.4141 150.241 15.406 150.233L15.3328 150.163C15.3247 150.155 15.3164 150.146 15.3083 150.138C15.3004 150.13 15.2919 150.122 15.2839 150.115C15.276 150.107 15.2684 150.099 15.2605 150.091L15.1873 150.021C15.1807 150.015 15.1451 149.98 15.1394 149.974C15.118 149.953 15.0649 149.902 15.0437 149.881C15.0351 149.873 14.9591 149.798 14.949 149.789C14.923 149.763 14.9271 149.767 14.9011 149.742C14.8934 149.734 14.8854 149.727 14.8777 149.719C14.8698 149.712 14.8611 149.703 14.8533 149.696C14.7994 149.643 14.719 149.565 14.6658 149.513C14.6581 149.506 14.65 149.498 14.6423 149.491C14.6345 149.483 14.6267 149.475 14.6189 149.467L14.5486 149.4C14.5408 149.392 14.5339 149.384 14.5261 149.376L14.4792 149.331C14.4504 149.303 14.4152 149.27 14.3865 149.242C14.3351 149.192 14.3461 149.202 14.2947 149.152C14.2871 149.144 14.2798 149.137 14.2722 149.129C14.2646 149.122 14.2564 149.115 14.2488 149.108L14.2029 149.063C14.1953 149.056 14.188 149.048 14.1804 149.04C14.173 149.033 14.1654 149.026 14.158 149.019C14.1504 149.012 14.1421 149.004 14.1345 148.997C14.1269 148.989 14.1196 148.981 14.1121 148.974C14.1046 148.967 14.097 148.96 14.0896 148.953C14.082 148.945 14.0737 148.937 14.0662 148.93C14.0586 148.923 14.0512 148.915 14.0437 148.908C14.0363 148.9 14.0287 148.893 14.0212 148.886C14.0137 148.879 14.0063 148.871 13.9988 148.864C13.9914 148.857 13.9837 148.849 13.9763 148.842C13.9571 148.824 13.9496 148.817 13.9304 148.798C13.9229 148.791 13.9155 148.783 13.908 148.776C13.9005 148.769 13.8929 148.762 13.8855 148.754C13.878 148.747 13.8705 148.739 13.863 148.732C13.8556 148.725 13.848 148.718 13.8406 148.71C13.8313 148.701 13.7599 148.631 13.7507 148.623C13.7205 148.593 13.7363 148.609 13.7058 148.58L13.6619 148.536L13.5945 148.471C13.5872 148.464 13.5803 148.457 13.573 148.45C13.5558 148.433 13.5452 148.422 13.5281 148.406L13.4402 148.32L13.3953 148.277L13.3074 148.191C13.2949 148.179 13.2758 148.161 13.2634 148.149C13.2562 148.142 13.2492 148.134 13.2419 148.127C13.2346 148.12 13.2268 148.113 13.2195 148.106C13.1629 148.051 13.1889 148.076 13.1326 148.021C13.1253 148.014 13.1174 148.007 13.1101 147.999C13.1029 147.992 13.0958 147.985 13.0886 147.978C13.0787 147.968 13.0545 147.946 13.0447 147.936C13.0279 147.92 12.9743 147.867 12.9578 147.851C12.9405 147.834 12.9321 147.826 12.9148 147.809C12.9003 147.795 12.8853 147.781 12.8708 147.767C12.8279 147.725 12.7405 147.64 12.698 147.599L12.5261 147.431C12.4301 147.338 12.2793 147.192 12.1843 147.099C12.1588 147.074 12.1249 147.041 12.0994 147.016C12.0714 146.989 12.0852 147.002 12.0574 146.975C12.0197 146.938 12.0521 146.97 12.0144 146.933C11.9843 146.904 12.0028 146.922 11.9724 146.892C11.9653 146.885 11.958 146.878 11.9509 146.872C11.944 146.865 11.9373 146.858 11.9304 146.851L11.8875 146.81C11.875 146.798 11.8579 146.78 11.8455 146.768C11.8042 146.728 11.7179 146.644 11.6765 146.604C11.6641 146.592 11.6459 146.575 11.6335 146.563C11.6266 146.556 11.62 146.549 11.613 146.542C11.6061 146.536 11.5985 146.529 11.5916 146.522C11.5527 146.484 11.5464 146.477 11.5076 146.439L11.4646 146.398C11.4577 146.391 11.451 146.384 11.4441 146.377C11.4371 146.371 11.4296 146.364 11.4226 146.357C11.41 146.345 11.3931 146.328 11.3806 146.316C11.3737 146.309 11.3661 146.302 11.3591 146.295C11.3522 146.289 11.3455 146.282 11.3386 146.275C11.3232 146.26 11.312 146.249 11.2966 146.234C11.2896 146.227 11.2822 146.22 11.2751 146.213C11.2682 146.207 11.2616 146.2 11.2546 146.193L11.2117 146.152C11.2048 146.145 11.1981 146.138 11.1912 146.131C11.1842 146.124 11.1767 146.118 11.1697 146.111C11.1628 146.104 11.1561 146.097 11.1492 146.09L11.1062 146.049C11.0993 146.043 11.0926 146.035 11.0857 146.029C11.0786 146.022 11.0083 145.953 11.0017 145.947L10.9587 145.906L10.8328 145.783C10.8257 145.776 10.8183 145.769 10.8113 145.762C10.8044 145.755 10.7977 145.748 10.7908 145.742L10.7478 145.701C10.7409 145.694 10.7342 145.687 10.7273 145.68C10.7203 145.673 10.7128 145.666 10.7058 145.66C10.6989 145.653 10.6922 145.646 10.6853 145.639C10.6783 145.632 10.6708 145.625 10.6638 145.619C10.583 145.54 10.5758 145.532 10.4949 145.454C10.2956 145.26 10.0155 144.987 9.81323 144.79C9.78991 144.768 9.75058 144.73 9.72729 144.707C9.70642 144.687 9.6623 144.644 9.64136 144.623C9.57521 144.559 9.53495 144.52 9.46851 144.456C9.46129 144.448 9.45424 144.441 9.44702 144.434C9.43993 144.427 9.43263 144.42 9.42554 144.414C9.41831 144.406 9.41031 144.399 9.40308 144.392C9.39598 144.385 9.38869 144.378 9.38159 144.372L9.33862 144.329C9.33138 144.322 9.32341 144.315 9.31616 144.308C9.30892 144.301 9.30193 144.294 9.29468 144.287C9.21658 144.211 9.19831 144.193 9.11987 144.117C9.06688 144.065 9.08507 144.082 9.03198 144.031C9.02474 144.024 9.01774 144.016 9.0105 144.009C9.00318 144.002 8.99536 143.995 8.98804 143.988C8.96569 143.966 8.96668 143.967 8.94409 143.945C8.91145 143.913 8.80007 143.805 8.76733 143.773L8.69995 143.708C8.69253 143.701 8.68589 143.693 8.67847 143.686L8.63354 143.643C8.6131 143.623 8.6091 143.619 8.58862 143.599C8.58274 143.593 8.54901 143.561 8.5437 143.556C8.53623 143.549 8.52872 143.541 8.52124 143.534L8.47632 143.491C8.46882 143.483 8.46136 143.476 8.45386 143.468L8.36401 143.38C8.3566 143.373 8.34898 143.366 8.34155 143.359C8.33401 143.352 8.32567 143.344 8.31812 143.336C8.31065 143.329 8.30313 143.321 8.29565 143.314C8.28823 143.307 8.28062 143.3 8.27319 143.292C8.26563 143.285 8.25831 143.277 8.25073 143.27C8.24316 143.263 8.23488 143.256 8.22729 143.248L8.18237 143.204C8.17477 143.196 8.16654 143.189 8.15894 143.181C8.15151 143.174 8.1439 143.167 8.13647 143.16C8.12893 143.152 8.12157 143.145 8.11401 143.137C8.10639 143.13 8.09821 143.122 8.09058 143.115C8.08299 143.107 8.07571 143.1 8.06812 143.092C8.06047 143.085 8.05233 143.077 8.04468 143.07C8.03713 143.062 8.02977 143.055 8.02222 143.047C8.01463 143.04 8.00638 143.033 7.99878 143.026C7.99123 143.018 7.98387 143.011 7.97632 143.003C7.96869 142.996 7.96052 142.988 7.95288 142.981C7.91315 142.942 7.94638 142.974 7.90698 142.936L7.86011 142.891C7.84829 142.88 7.7793 142.812 7.76733 142.8C7.74553 142.779 7.74235 142.776 7.72046 142.754C7.71288 142.747 7.70559 142.739 7.698 142.732L7.65112 142.687C7.64334 142.679 7.63548 142.671 7.62769 142.664C7.59755 142.634 7.61096 142.647 7.58081 142.618C7.57297 142.61 7.56424 142.603 7.5564 142.595C7.54865 142.588 7.54072 142.58 7.53296 142.573L7.48608 142.526C7.43976 142.481 7.43794 142.479 7.39136 142.434C7.38346 142.426 7.37583 142.418 7.36792 142.411C7.36003 142.403 7.35141 142.396 7.34351 142.388C7.33563 142.38 7.32795 142.372 7.32007 142.365C7.31212 142.357 7.30362 142.349 7.29565 142.341C7.28775 142.334 7.28013 142.326 7.27222 142.318C7.26426 142.31 7.25577 142.302 7.2478 142.294C7.24334 142.29 7.20258 142.251 7.19995 142.248L7.10425 142.155C7.03994 142.092 6.97494 142.029 6.90991 141.965C6.90188 141.957 6.89354 141.95 6.8855 141.942C6.87737 141.934 6.86923 141.925 6.86108 141.917C6.85292 141.909 6.84387 141.902 6.83569 141.894C6.82758 141.886 6.81941 141.877 6.81128 141.87C6.80322 141.862 6.79494 141.854 6.78687 141.846C6.77869 141.838 6.77064 141.83 6.76245 141.822C6.75437 141.814 6.74613 141.806 6.73804 141.798C6.72981 141.79 6.72088 141.782 6.71265 141.774C6.67536 141.738 6.70138 141.763 6.66382 141.726C6.65556 141.718 6.6467 141.71 6.63843 141.702C6.63026 141.694 6.6222 141.685 6.61401 141.677C6.59386 141.658 6.58447 141.649 6.56421 141.629C6.55679 141.622 6.52189 141.588 6.5144 141.581C6.48685 141.554 6.44157 141.51 6.41382 141.483C6.4015 141.471 6.37644 141.446 6.36401 141.434L6.31323 141.385C6.2692 141.342 6.25591 141.329 6.21167 141.286L6.16089 141.237C6.15237 141.228 6.14305 141.22 6.13452 141.211C6.12611 141.203 6.11755 141.195 6.10913 141.187L6.05835 141.136L5.95483 141.037C5.94621 141.028 5.93711 141.02 5.92847 141.011C5.9199 141.003 5.91166 140.994 5.90308 140.986C5.88534 140.969 5.8691 140.952 5.85132 140.935L5.79858 140.884C5.76353 140.85 5.78193 140.868 5.74683 140.833C5.7458 140.832 5.69808 140.787 5.69409 140.783C5.608 140.699 5.51251 140.605 5.4187 140.514V94.9731L17.0867 82.6733L17.2234 82.5288V39.4604C17.2326 39.4514 17.2425 39.443 17.2517 39.434C17.2636 39.4225 17.275 39.4104 17.2869 39.3989C17.2987 39.3874 17.3112 39.3762 17.323 39.3647C17.3349 39.3532 17.3463 39.3411 17.3582 39.3295C17.37 39.318 17.3825 39.3069 17.3943 39.2954C17.406 39.284 17.4177 39.2726 17.4294 39.2612C17.4412 39.2497 17.4528 39.2375 17.4646 39.226C17.4763 39.2146 17.4881 39.2032 17.4998 39.1919C17.5115 39.1804 17.5241 39.1691 17.5359 39.1577L17.6062 39.0893C17.6178 39.0781 17.6288 39.0664 17.6404 39.0551C17.668 39.0282 17.7536 38.946 17.781 38.9194C17.8301 38.8716 17.8709 38.8311 17.9197 38.7836C17.9672 38.7374 18.0102 38.6958 18.0574 38.6499C18.0635 38.6439 18.1197 38.5884 18.1257 38.5825L18.2966 38.4165C18.3079 38.4055 18.3196 38.3951 18.3308 38.3842C18.396 38.3208 18.4016 38.3156 18.4666 38.2524C18.488 38.2315 18.5116 38.2078 18.533 38.187C18.5442 38.1761 18.5559 38.1647 18.5671 38.1538C18.5782 38.143 18.5893 38.1323 18.6003 38.1215C18.6126 38.1096 18.6555 38.068 18.6677 38.0561C18.6891 38.0353 18.7128 38.0114 18.7341 37.9907L18.9998 37.7329C19.0048 37.7279 19.0621 37.6724 19.0652 37.6694C19.0761 37.6587 19.0875 37.6478 19.0984 37.6372C19.1092 37.6266 19.1198 37.6155 19.1306 37.6049C19.1863 37.5508 19.206 37.532 19.2615 37.478C19.2722 37.4675 19.283 37.4572 19.2937 37.4467C19.3045 37.4362 19.3151 37.425 19.3259 37.4145C19.3394 37.4014 19.378 37.365 19.3914 37.352C19.4157 37.3283 19.4315 37.3122 19.4558 37.2885L19.5847 37.1635C19.6014 37.1473 19.6315 37.1172 19.6482 37.101L19.7126 37.0385C19.7232 37.0283 19.7343 37.0185 19.7449 37.0083C19.7554 36.998 19.7656 36.9873 19.7761 36.977C19.7867 36.9667 19.7977 36.9561 19.8083 36.9458C19.8188 36.9356 19.8292 36.9256 19.8396 36.9155C19.8502 36.9052 19.8613 36.8945 19.8718 36.8842C19.8824 36.874 19.8925 36.8632 19.9031 36.853C19.9136 36.8427 19.9248 36.833 19.9353 36.8227C19.9458 36.8125 19.956 36.8017 19.9666 36.7915C19.999 36.7599 19.9976 36.7615 20.03 36.7299L20.0925 36.6694C20.103 36.6592 20.1133 36.6483 20.1238 36.6381C20.1342 36.628 20.1456 36.618 20.156 36.6079C20.2249 36.5408 20.2121 36.5529 20.281 36.4858C20.2913 36.4758 20.302 36.4655 20.3123 36.4555C20.3225 36.4456 20.3323 36.4352 20.3425 36.4252L20.405 36.3647C20.4153 36.3547 20.4261 36.3454 20.4363 36.3354C20.4466 36.3253 20.4572 36.3152 20.4675 36.3051C20.4778 36.2952 20.4876 36.2848 20.4978 36.2749C20.5081 36.2648 20.5188 36.2546 20.5291 36.2446C20.5706 36.2042 20.6108 36.1647 20.6521 36.1245C20.6623 36.1145 20.6731 36.1051 20.6833 36.0952L20.7439 36.0346C20.7541 36.0247 20.7649 36.0153 20.7751 36.0053C20.7822 35.9984 20.8279 35.9533 20.8357 35.9458C20.8458 35.9359 20.8568 35.9263 20.8669 35.9165C20.8771 35.9066 20.8871 35.8961 20.8972 35.8862C20.9073 35.8764 20.9174 35.8667 20.9275 35.8569C20.9376 35.847 20.9476 35.8365 20.9578 35.8266L21.0789 35.7094C21.0889 35.6996 21.0991 35.6889 21.1091 35.6792L21.2908 35.5034C21.3007 35.4937 21.3102 35.4837 21.3201 35.4741L21.3806 35.4155C21.3905 35.4059 21.401 35.3968 21.4109 35.3872C21.4208 35.3775 21.4303 35.3675 21.4402 35.3579C21.4502 35.3482 21.4605 35.3383 21.4705 35.3286C21.4804 35.3189 21.4899 35.3089 21.4998 35.2993C21.5096 35.2896 21.5201 35.2806 21.53 35.271C21.5399 35.2614 21.5495 35.2512 21.5593 35.2417C21.5693 35.232 21.5797 35.222 21.5896 35.2124C21.5993 35.2029 21.6092 35.1935 21.6189 35.184C21.6288 35.1744 21.6393 35.1644 21.6492 35.1547C21.659 35.1451 21.6686 35.135 21.6785 35.1254L21.7976 35.0102C21.8073 35.0007 21.8172 34.9913 21.8269 34.9819C21.8367 34.9723 21.8464 34.9622 21.8562 34.9526C21.9035 34.9066 21.9271 34.8843 21.9744 34.8383C21.9841 34.8289 21.9939 34.8195 22.0037 34.81C22.0135 34.8005 22.0232 34.7902 22.033 34.7807L22.1501 34.6674C22.1599 34.6579 22.1697 34.6476 22.1794 34.6381L22.2673 34.5532C22.2769 34.5439 22.2861 34.5342 22.2957 34.5249L22.4128 34.4116C22.4224 34.4023 22.4316 34.3926 22.4412 34.3833L22.5291 34.2983C22.5386 34.289 22.5479 34.2792 22.5574 34.27C22.5703 34.2574 22.6019 34.227 22.615 34.2143L22.6736 34.1577C22.6957 34.1362 22.7091 34.1235 22.7312 34.102C22.7408 34.0927 22.75 34.083 22.7595 34.0737C22.7691 34.0643 22.7792 34.0547 22.7888 34.0454C22.7982 34.0362 22.8077 34.0272 22.8171 34.018C22.8267 34.0087 22.8368 33.999 22.8464 33.9897C22.8882 33.9491 22.8622 33.9747 22.9041 33.934L22.9607 33.8774C22.9703 33.8681 22.9804 33.8594 22.99 33.8501C22.9996 33.8408 23.0088 33.831 23.0183 33.8217C23.0422 33.7985 23.052 33.7893 23.0759 33.7661C23.0853 33.7569 23.0948 33.7479 23.1042 33.7387C23.1137 33.7295 23.1231 33.7196 23.1326 33.7104C23.2095 33.6356 23.2845 33.5633 23.3611 33.4887C23.3902 33.4604 23.3896 33.4614 23.4187 33.4331C23.4281 33.4239 23.4376 33.4139 23.447 33.4047L23.532 33.3227C23.5415 33.3135 23.5508 33.3036 23.5603 33.2944L23.6169 33.2397C23.6264 33.2305 23.6358 33.2206 23.6453 33.2114L23.7302 33.1294C23.7397 33.1202 23.7491 33.1102 23.7585 33.101C23.8025 33.0583 23.7715 33.0889 23.8152 33.0463C23.839 33.0231 23.9047 32.9592 23.9285 32.936L24.0417 32.8266C24.0778 32.7915 24.0624 32.806 24.0984 32.771C24.1077 32.7619 24.1174 32.7526 24.1267 32.7436C24.1359 32.7346 24.1448 32.7253 24.1541 32.7163L24.324 32.5522C24.3332 32.5432 24.3421 32.5338 24.3513 32.5249L24.408 32.4702C24.4173 32.461 24.4269 32.451 24.4363 32.4419L24.4929 32.3872C24.5022 32.3782 24.511 32.3688 24.5203 32.3598L24.6335 32.2504C24.6428 32.2415 24.6517 32.2321 24.6609 32.2231L24.7458 32.1411C24.7551 32.1321 24.764 32.1227 24.7732 32.1137L24.8865 32.0044C24.8957 31.9954 24.9046 31.986 24.9138 31.977L24.9988 31.895C25.0099 31.8842 25.0435 31.851 25.0544 31.8403C25.1167 31.7797 25.1046 31.7914 25.1667 31.7309L25.28 31.6215C25.2893 31.6125 25.2981 31.6032 25.3074 31.5942L25.4207 31.4848C25.4299 31.4758 25.4388 31.4665 25.448 31.4575L25.5613 31.3481L25.6169 31.2924L25.8435 31.0737C25.8529 31.0645 25.8615 31.0545 25.8708 31.0454L25.9558 30.9633C25.9907 30.9294 26.0342 30.8869 26.0691 30.853C26.0757 30.8465 26.1192 30.8047 26.1257 30.7983C26.1317 30.7925 26.1764 30.7485 26.1824 30.7426L26.2673 30.6606C26.2768 30.6514 26.2862 30.6415 26.2957 30.6323C26.3189 30.6097 26.3291 30.6001 26.3523 30.5776C26.3618 30.5684 26.3711 30.5585 26.3806 30.5493C26.3901 30.5401 26.4004 30.5312 26.4099 30.5219C26.4438 30.489 26.4324 30.4995 26.4666 30.4663L26.5232 30.4116C26.5999 30.3369 26.6747 30.2639 26.7517 30.1889C26.8189 30.1236 26.9137 30.032 26.9812 29.9663C26.9895 29.9582 27.0305 29.9177 27.0388 29.9096C27.0482 29.9005 27.0577 29.8914 27.0671 29.8823C27.0767 29.8729 27.0868 29.8633 27.0964 29.854C27.106 29.8447 27.1152 29.8349 27.1248 29.8256C27.1343 29.8163 27.1445 29.8076 27.1541 29.7983C27.1636 29.789 27.1728 29.7793 27.1824 29.77C27.192 29.7606 27.202 29.751 27.2117 29.7417C27.2886 29.6668 27.3658 29.5913 27.4431 29.5161C27.4912 29.4693 27.5111 29.4497 27.5593 29.4028L27.6765 29.2895L28.0281 28.9467C28.0379 28.9372 28.0485 28.927 28.0583 28.9174C28.0681 28.908 28.0779 28.8986 28.0876 28.8891C28.1003 28.8768 28.1334 28.844 28.1462 28.8315C28.1807 28.798 28.2308 28.7499 28.2654 28.7163C28.2924 28.69 28.2979 28.684 28.325 28.6577C28.3347 28.6482 28.3445 28.6388 28.3542 28.6294C28.3642 28.6197 28.3746 28.6097 28.3845 28.6001C28.4688 28.518 28.5389 28.4493 28.6238 28.3667L28.8054 28.1909C28.8462 28.1511 28.8251 28.1711 28.866 28.1313C28.9274 28.0715 29.0481 27.9544 29.1101 27.894C29.1616 27.8439 29.1803 27.8253 29.2322 27.7749C29.2424 27.7649 29.2532 27.7546 29.2634 27.7446C29.2735 27.7348 29.2836 27.7251 29.2937 27.7153C29.304 27.7053 29.3147 27.695 29.325 27.685C29.3352 27.6751 29.345 27.6647 29.3552 27.6547C29.414 27.5975 29.5447 27.4715 29.6042 27.4135L29.6667 27.353C29.6831 27.3371 29.7128 27.3074 29.7292 27.2915C29.7676 27.2541 29.7535 27.2682 29.7917 27.2309C29.8089 27.2142 29.838 27.1861 29.8552 27.1694C29.8657 27.1592 29.876 27.1483 29.8865 27.1381C29.8969 27.128 29.9073 27.118 29.9177 27.1079C29.9283 27.0976 29.9394 27.0869 29.95 27.0766C29.9603 27.0665 29.9708 27.0565 29.9812 27.0463C30.0147 27.0137 30.0744 26.9551 30.1082 26.9223C30.1187 26.912 30.1298 26.9023 30.1404 26.892C30.1509 26.8818 30.1611 26.8711 30.1716 26.8608L30.3005 26.7358C30.3111 26.7255 30.3212 26.7148 30.3318 26.7045C30.3425 26.6942 30.3533 26.6837 30.364 26.6733C30.4085 26.63 30.4491 26.5909 30.4939 26.5473L30.5583 26.4848C30.5692 26.4743 30.5797 26.4631 30.5906 26.4526C30.6014 26.4421 30.613 26.4319 30.6238 26.4213C30.6345 26.4109 30.6453 26.4005 30.656 26.3901C30.6668 26.3796 30.6774 26.3684 30.6882 26.3579C30.7151 26.3317 30.7268 26.3205 30.7537 26.2944C30.7926 26.2565 30.8463 26.2046 30.8855 26.1665C30.9747 26.0797 31.0599 25.9965 31.1501 25.9086C31.1611 25.8979 31.1723 25.8871 31.1833 25.8764C31.1945 25.8656 31.2064 25.8541 31.2175 25.8432C31.2236 25.8373 31.2792 25.7834 31.2839 25.7788C31.3427 25.7216 31.3597 25.7053 31.4187 25.6479C31.4427 25.6246 31.5286 25.5403 31.5535 25.5161L31.7927 25.2836C31.8042 25.2725 31.8154 25.2606 31.8269 25.2495C31.8888 25.1892 31.9034 25.1762 31.9656 25.1157C31.9771 25.1045 31.9883 25.0927 31.9998 25.0815C32.0113 25.0703 32.0234 25.0595 32.0349 25.0483C32.0389 25.0445 32.1006 24.9845 32.1042 24.9809C32.1157 24.9697 32.1269 24.9579 32.1384 24.9467L32.3845 24.7075C32.4438 24.6498 32.4665 24.6278 32.5261 24.5698C32.5378 24.5584 32.5496 24.547 32.5613 24.5356C32.5731 24.5241 32.5855 24.512 32.5974 24.5004C32.6093 24.4889 32.6207 24.4769 32.6326 24.4653C32.6438 24.4544 32.6555 24.444 32.6667 24.4331H44.7683V23.9331C44.7683 13.6494 53.342 5.28674 63.9431 5.28658ZM63.9431 13.8598C58.2458 13.86 53.6062 18.3561 53.6062 23.9331V24.4331H76.2488V23.9331C76.2488 18.356 71.6083 13.8598 65.9109 13.8598H63.9431Z" stroke="black" stroke-opacity="0.94"/>
</g>
<g opacity="0.8">
<path d="M99.3583 47.8659L93.995 55.5244H72.6674L78.0662 47.8659H99.3583Z" fill="#1E119D"/>
<path d="M98.3978 48.3659L93.7347 55.0241H73.6312L78.3256 48.3659H98.3978Z" stroke="black" stroke-opacity="0.94"/>
</g>
<g opacity="0.8">
<path d="M96.407 91.4008H33.4473V124.451H96.407V91.4008Z" fill="#1E119D"/>
<path d="M95.9073 91.9008V123.952H33.9473V91.9008H95.9073Z" stroke="black" stroke-opacity="0.94"/>
</g>
<g opacity="0.8">
<path d="M35.5289 67.0122H33.5614V59.3537H35.5289V67.0122ZM40.5932 59.3537H38.6257V67.0122H40.5932V59.3537ZM45.6575 59.3537H43.6901V67.0122H45.6575V59.3537ZM50.7219 59.3537H48.7544V67.0122H50.7219V59.3537ZM55.7862 59.3537H53.8187V67.0122H55.7862V59.3537ZM60.8466 59.3537H58.8791V67.0122H60.8466V59.3537ZM65.9109 59.3537H63.9434V67.0122H65.9109V59.3537ZM70.9752 59.3537H69.0077V67.0122H70.9752V59.3537ZM76.0356 59.3537H74.0681V67.0122H76.0356V59.3537ZM81.0999 59.3537H79.1324V67.0122H81.0999V59.3537ZM86.1642 59.3537H84.1968V67.0122H86.1642V59.3537ZM91.2286 59.3537H89.2611V67.0122H91.2286V59.3537ZM96.2929 59.3537H94.3254V67.0122H96.2929V59.3537Z" fill="#1E119D"/>
<path d="M95.7928 59.8537V66.5119H94.8251V59.8537H95.7928ZM90.7284 59.8537V66.5119H89.7606V59.8537H90.7284ZM85.6639 59.8537V66.5119H84.6971V59.8537H85.6639ZM80.5995 59.8537V66.5119H79.6327V59.8537H80.5995ZM75.536 59.8537V66.5119H74.5682V59.8537H75.536ZM70.4755 59.8537V66.5119H69.5077V59.8537H70.4755ZM65.411 59.8537V66.5119H64.4432V59.8537H65.411ZM60.3466 59.8537V66.5119H59.3788V59.8537H60.3466ZM55.286 59.8537V66.5119H54.3182V59.8537H55.286ZM50.2216 59.8537V66.5119H49.2548V59.8537H50.2216ZM45.1571 59.8537V66.5119H44.1903V59.8537H45.1571ZM40.0936 59.8537V66.5119H39.1259V59.8537H40.0936ZM35.0292 59.8537V66.5119H34.0614V59.8537H35.0292Z" stroke="black" stroke-opacity="0.94"/>
</g>
<g opacity="0.8">
<path d="M35.5289 135.939H33.5614V128.28H35.5289V135.939ZM40.5932 128.28H38.6257V135.939H40.5932V128.28ZM45.6575 128.28H43.6901V135.939H45.6575V128.28ZM50.7219 128.28H48.7544V135.939H50.7219V128.28ZM55.7862 128.28H53.8187V135.939H55.7862V128.28ZM60.8466 128.28H58.8791V135.939H60.8466V128.28ZM65.9109 128.28H63.9434V135.939H65.9109V128.28ZM70.9752 128.28H69.0077V135.939H70.9752V128.28ZM76.0356 128.28H74.0681V135.939H76.0356V128.28ZM81.0999 128.28H79.1324V135.939H81.0999V128.28ZM86.1642 128.28H84.1968V135.939H86.1642V128.28ZM91.2286 128.28H89.2611V135.939H91.2286V128.28ZM96.2929 128.28H94.3254V135.939H96.2929V128.28Z" fill="#1E119D"/>
<path d="M95.7928 128.78V135.439H94.8251V128.78H95.7928ZM90.7284 128.78V135.439H89.7606V128.78H90.7284ZM85.6639 128.78V135.439H84.6971V128.78H85.6639ZM80.5995 128.78V135.439H79.6327V128.78H80.5995ZM75.536 128.78V135.439H74.5682V128.78H75.536ZM70.4755 128.78V135.439H69.5077V128.78H70.4755ZM65.411 128.78V135.439H64.4432V128.78H65.411ZM60.3466 128.78V135.439H59.3788V128.78H60.3466ZM55.286 128.78V135.439H54.3182V128.78H55.286ZM50.2216 128.78V135.439H49.2548V128.78H50.2216ZM45.1571 128.78V135.439H44.1903V128.78H45.1571ZM40.0936 128.78V135.439H39.1259V128.78H40.0936ZM35.0292 128.78V135.439H34.0614V128.78H35.0292Z" stroke="black" stroke-opacity="0.94"/>
</g>
<path d="M126.081 112.163L126.152 94.1655L114.111 81.9463V59.3537L118.046 55.5244V37.2664L103.364 22.9756H90.5951L90.0127 19.1463C87.7265 8.23676 77.7907 0 65.9149 0H63.9474C52.0716 0 42.1319 8.23676 39.8496 19.1463L39.1806 22.9756H26.4982L11.8049 37.2664V60.7896L15.7399 64.6189V81.954L3.93498 94.3991V118.707L0 122.537V142.709L14.6854 157H115.204L129.89 142.767L130 115.977L126.081 112.163ZM17.7074 41.7046L29.0205 59.4877V135.778L17.7074 150.172V41.7046ZM55.1448 22.9756C55.6367 18.6753 59.3946 15.3171 63.9435 15.3171H65.9109C70.4598 15.3171 74.2177 18.6753 74.7096 22.9756H55.1448ZM65.9109 13.4024H63.9435C57.9741 13.4024 53.1223 18.1239 53.1223 23.9329H45.2523C45.2523 13.9041 53.6377 5.7439 63.9435 5.7439H65.9109C76.2167 5.7439 84.6021 13.9041 84.6021 23.9329H76.7322C76.7322 18.1239 71.8803 13.4024 65.9109 13.4024ZM96.9816 24.8902L112.147 39.6482V39.8895L99.9249 59.1048L99.8502 59.2196V136.096L111.305 151.256H18.097L29.9059 136.23L30.0042 136.1V59.2196L17.7074 39.8895V39.6482L32.8728 24.8902H96.9816ZM112.147 150.754L100.834 135.782V59.4877L112.147 41.7046V150.754ZM124.188 94.9276L123.995 140.369L113.131 150.9V83.7116L124.188 94.9276ZM5.90247 95.1497L16.7237 83.7423V150.862L5.90247 140.327V95.1497Z" fill="#1E119D"/>
<path d="M63.9434 14.8174C59.1478 14.8174 55.17 18.3589 54.6484 22.9189L54.584 23.4756H75.2705L75.2061 22.9189C74.6845 18.3589 70.7066 14.8175 65.9111 14.8174H63.9434ZM16.2402 64.4082L16.0889 64.2607L12.3047 60.5781V37.4775L26.7012 23.4756H39.6006L39.6729 23.0615L40.3389 19.249C42.5718 8.57517 52.3041 0.500058 63.9473 0.5H65.915C77.5542 0.500072 87.2794 8.56949 89.5205 19.2383L90.1006 23.0508L90.165 23.4756H103.161L117.546 37.4785V55.3125L113.762 58.9951L113.61 59.1426V82.1514L113.755 82.2969L125.65 94.3682L125.581 112.161L125.58 112.373L125.732 112.521L129.499 116.187L129.39 142.554L115.002 156.5H14.8887L0.5 142.497V122.747L4.2832 119.065L4.43457 118.918V94.5986L16.1025 82.2979L16.2402 82.1533V64.4082ZM53.6221 23.9326C53.6222 18.4127 58.2374 13.9024 63.9434 13.9023H65.9111C71.6171 13.9024 76.2322 18.4127 76.2324 23.9326V24.3906H53.6221V23.9326ZM85.1025 23.9326C85.1024 13.6151 76.4799 5.24424 65.9111 5.24414H63.9434C53.3746 5.24419 44.7521 13.615 44.752 23.9326V24.3906H32.6699L32.5244 24.5322L17.3584 39.29L17.207 39.4375V82.5049L16.3613 83.3984L5.54004 94.8057L5.40234 94.9502V140.538L5.55371 140.686L16.375 151.22L17.2236 152.046V151.756H112.277L112.647 152.245V152.064L113.479 151.259L124.343 140.729L124.494 140.582L124.495 140.372L124.688 94.9297V94.7236L124.544 94.5762L113.486 83.3604L112.647 82.5088V39.4375L112.496 39.29L97.3301 24.5322L97.1846 24.3906H85.1025V23.9326Z" stroke="black" stroke-opacity="0.94"/>
</svg>
